<?xml version="1.0" standalone="no"?>
<!DOCTYPE svg PUBLIC "-//W3C//DTD SVG 20010904//EN"
 "http://www.w3.org/TR/2001/REC-SVG-20010904/DTD/svg10.dtd">
<svg version="1.0" xmlns="http://www.w3.org/2000/svg"
 width="512.000000pt" height="512.000000pt" viewBox="0 0 512.000000 512.000000"
 preserveAspectRatio="xMidYMid meet">
<metadata>
Created by potrace 1.14, written by Peter Selinger 2001-2017
</metadata>
<g transform="translate(0.000000,512.000000) scale(0.100000,-0.100000)"
fill="#000000" stroke="none">
<path d="M2379 5116 c-2 -2 -40 -6 -83 -10 -44 -4 -82 -9 -85 -11 -4 -2 -34
-7 -66 -10 -75 -9 -272 -57 -374 -91 -516 -172 -954 -487 -1270 -914 -269
-362 -442 -814 -490 -1280 -9 -89 -6 -470 4 -530 3 -19 15 -87 25 -150 46
-272 167 -612 296 -827 139 -233 251 -379 419 -548 215 -215 486 -402 755
-519 47 -21 94 -41 105 -46 121 -54 375 -123 560 -151 39 -6 81 -13 95 -15 47
-10 475 -13 545 -4 39 5 90 12 115 15 322 41 729 195 1020 386 644 422 1047
1062 1150 1829 14 104 17 186 15 360 -1 124 -5 236 -9 249 -3 14 -8 46 -11 73
-21 186 -94 438 -190 662 -144 336 -411 698 -676 916 -30 25 -56 47 -59 50
-23 26 -272 200 -286 200 -4 0 -15 6 -23 14 -17 15 -293 156 -306 156 -4 0
-21 7 -38 15 -82 38 -372 123 -477 139 -19 3 -66 11 -105 17 -38 6 -81 13 -95
15 -29 6 -455 15 -461 10z"/>
</g>
</svg>
